<svg xmlns="http://www.w3.org/2000/svg" width="820" height="16" viewBox="0 0 820 16">
  <defs>
    <linearGradient id="line" x1="0" y1="0" x2="1" y2="0">
      <stop offset="0" stop-color="#0891B2" stop-opacity="0"/>
      <stop offset="0.5" stop-color="#0891B2" stop-opacity="0.7"/>
      <stop offset="1" stop-color="#0891B2" stop-opacity="0"/>
    </linearGradient>
  </defs>
  <line x1="0" y1="8" x2="820" y2="8" stroke="url(#line)" stroke-width="1"/>
  <circle cx="390" cy="8" r="1" fill="#0891B2" opacity="0.5"/>
  <circle cx="398" cy="8" r="1.5" fill="#0891B2" opacity="0.7"/>
  <g transform="translate(410 8)">
    <path d="M -3.6,1.4 C -4.2,0 -3.6,-2.4 -1.6,-3.4 C 0,-4,1.6,-3.4 3.6,-2.4 C 4.2,0 3.6,1.4 2.0,2.2 C 0,2.6 -2.0,2.2 -3.6,1.4 Z" fill="#0891B2" opacity="0.45" stroke="#06B6D4" stroke-width="1.2" stroke-linejoin="round"/>
    <ellipse cx="-1.4" cy="-2.2" rx="1.04" ry="0.36" fill="#0369A1" opacity="0.85"/>
    <circle cx="-1.2" cy="-0.2" r="0.56" fill="#0F172A" opacity="0.92"/>
    <circle cx="1.2" cy="-0.2" r="0.56" fill="#0F172A" opacity="0.92"/>
  </g>

  <circle cx="422" cy="8" r="1.5" fill="#0891B2" opacity="0.7"/>
  <circle cx="430" cy="8" r="1" fill="#0891B2" opacity="0.5"/>
</svg>
