<svg xmlns="http://www.w3.org/2000/svg" width="420" height="64" viewBox="0 0 420 64">
  <defs>
    <linearGradient id="bg" x1="0" y1="0" x2="1" y2="1">
      <stop offset="0" stop-color="#F8FAFC"/>
      <stop offset="1" stop-color="#E0F2FE"/>
    </linearGradient>
    <linearGradient id="titleGrad" x1="0" y1="0" x2="1" y2="0">
      <stop offset="0" stop-color="#0F172A"/>
      <stop offset="1" stop-color="#0369A1"/>
    </linearGradient>
    <linearGradient id="themeShim" x1="0" y1="0" x2="1" y2="0">
      <stop offset="0" stop-color="#C2410C" stop-opacity="0"/>
      <stop offset="0.5" stop-color="#EA580C" stop-opacity="0.75"/>
      <stop offset="1" stop-color="#C2410C" stop-opacity="0"/>
    </linearGradient>
    <pattern id="grid" patternUnits="userSpaceOnUse" width="10" height="10" patternTransform="rotate(45)">
      <line x1="0" y1="0" x2="0" y2="10" stroke="#C2410C" stroke-width="1.4" opacity="0.05"/>
    </pattern>
  </defs>
  <rect x="0.5" y="0.5" width="419" height="63" fill="url(#bg)" stroke="#CBD5E1"/>
  <rect x="0.5" y="0.5" width="419" height="63" fill="url(#grid)"/>
  <path d="M 3 13 L 3 3 L 13 3" stroke="#C2410C" stroke-width="1.5" fill="none" stroke-linecap="square"/>
  <path d="M 407 3 L 417 3 L 417 13" stroke="#C2410C" stroke-width="1.5" fill="none" stroke-linecap="square"/>
  <path d="M 3 51 L 3 61 L 13 61" stroke="#C2410C" stroke-width="1.5" fill="none" stroke-linecap="square"/>
  <path d="M 407 61 L 417 61 L 417 51" stroke="#C2410C" stroke-width="1.5" fill="none" stroke-linecap="square"/>
  <g transform="translate(31.0 32.0)">
    <path d="M 0,-15 C 5.25,-8.25 12.75,-2.25 9.0,6.75 C 6.0,11.25 0,12.75 0,12.75 C 0,12.75 -6.0,11.25 -9.0,6.75 C -12.75,-2.25 -5.25,-8.25 0,-15 Z" fill="#C2410C" opacity="0.45" stroke="#EA580C" stroke-width="1.2" stroke-linejoin="round"/>
    <path d="M 0,-8.25 C 3.0,-3.0 6.0,2.25 3.75,6.0 C 0,8.25 -3.75,6.0 -6.0,2.25 C -3.0,-3.0 0,-8.25 0,-8.25 Z" fill="#EA580C" opacity="0.9"/>
    <circle cx="0" cy="0.75" r="1.5" fill="#0369A1"/>
  </g>

  <line x1="58" y1="14" x2="58" y2="50" stroke="#CBD5E1" stroke-width="1" opacity="0.7"/>
  <text x="68" y="29" font-family="Georgia, 'Crimson Text', 'Times New Roman', serif" font-size="15" font-weight="700" font-style="italic" letter-spacing="2.4" fill="url(#titleGrad)">BUDGET ENGINE</text>
  <text x="68" y="47" font-family="'SF Mono', Menlo, Consolas, 'Courier New', monospace" font-size="9" letter-spacing="1.3" fill="#475569">HARD CAPS - FOUR ENFORCEMENT LEVELS</text>
  <line x1="320.68" y1="14" x2="320.68" y2="50" stroke="#CBD5E1" stroke-width="1" opacity="0.7"/>
  <text x="326.68" y="26" font-family="'SF Mono', Menlo, Consolas, 'Courier New', monospace" font-size="8" letter-spacing="1.2" fill="#475569">BENIMARU</text>
  <text x="326.68" y="44" font-family="Georgia, 'Crimson Text', 'Times New Roman', serif" font-size="13" font-weight="700" font-style="italic" letter-spacing="1.4" fill="#EA580C">RANK SS</text>
  <line x1="14" y1="60" x2="406" y2="60" stroke="url(#themeShim)" stroke-width="1"/>
</svg>
