<svg xmlns="http://www.w3.org/2000/svg" width="368" height="64" viewBox="0 0 368 64">
  <defs>
    <linearGradient id="bg" x1="0" y1="0" x2="1" y2="1">
      <stop offset="0" stop-color="#F8FAFC"/>
      <stop offset="1" stop-color="#E0F2FE"/>
    </linearGradient>
    <linearGradient id="titleGrad" x1="0" y1="0" x2="1" y2="0">
      <stop offset="0" stop-color="#0F172A"/>
      <stop offset="1" stop-color="#0369A1"/>
    </linearGradient>
    <linearGradient id="themeShim" x1="0" y1="0" x2="1" y2="0">
      <stop offset="0" stop-color="#6D28D9" stop-opacity="0"/>
      <stop offset="0.5" stop-color="#7C3AED" stop-opacity="0.75"/>
      <stop offset="1" stop-color="#6D28D9" stop-opacity="0"/>
    </linearGradient>
    <pattern id="grid" patternUnits="userSpaceOnUse" width="10" height="10" patternTransform="rotate(45)">
      <line x1="0" y1="0" x2="0" y2="10" stroke="#6D28D9" stroke-width="1.4" opacity="0.05"/>
    </pattern>
  </defs>
  <rect x="0.5" y="0.5" width="367" height="63" fill="url(#bg)" stroke="#CBD5E1"/>
  <rect x="0.5" y="0.5" width="367" height="63" fill="url(#grid)"/>
  <path d="M 3 13 L 3 3 L 13 3" stroke="#6D28D9" stroke-width="1.5" fill="none" stroke-linecap="square"/>
  <path d="M 355 3 L 365 3 L 365 13" stroke="#6D28D9" stroke-width="1.5" fill="none" stroke-linecap="square"/>
  <path d="M 3 51 L 3 61 L 13 61" stroke="#6D28D9" stroke-width="1.5" fill="none" stroke-linecap="square"/>
  <path d="M 355 61 L 365 61 L 365 51" stroke="#6D28D9" stroke-width="1.5" fill="none" stroke-linecap="square"/>
  <g transform="translate(31.0 32.0)">
    <rect x="-2.1" y="-13.5" width="4.2" height="19.2" fill="#6D28D9" opacity="0.55" stroke="#7C3AED" stroke-width="1"/>
    <polygon points="-2.1,-13.5 0,-15.75 2.1,-13.5" fill="#7C3AED"/>
    <rect x="-8.25" y="5.7" width="16.5" height="2.6999999999999997" rx="0.75" ry="0.75" fill="#7C3AED"/>
    <circle cx="0" cy="7.05" r="2.1" fill="#0369A1" opacity="0.85"/>
    <rect x="-1.3499999999999999" y="8.7" width="2.6999999999999997" height="5.25" fill="#6D28D9" opacity="0.7"/>
  </g>

  <line x1="58" y1="14" x2="58" y2="50" stroke="#CBD5E1" stroke-width="1" opacity="0.7"/>
  <text x="68" y="29" font-family="Georgia, 'Crimson Text', 'Times New Roman', serif" font-size="15" font-weight="700" font-style="italic" letter-spacing="2.4" fill="url(#titleGrad)">GUARD WRAPPER</text>
  <text x="68" y="47" font-family="'SF Mono', Menlo, Consolas, 'Courier New', monospace" font-size="9" letter-spacing="1.3" fill="#475569">KILL AGENTS AT THE COST LIMIT</text>
  <line x1="279.44" y1="14" x2="279.44" y2="50" stroke="#CBD5E1" stroke-width="1" opacity="0.7"/>
  <text x="285.44" y="26" font-family="'SF Mono', Menlo, Consolas, 'Courier New', monospace" font-size="8" letter-spacing="1.2" fill="#475569">SHION</text>
  <text x="285.44" y="44" font-family="Georgia, 'Crimson Text', 'Times New Roman', serif" font-size="13" font-weight="700" font-style="italic" letter-spacing="1.4" fill="#7C3AED">RANK S</text>
  <line x1="14" y1="60" x2="354" y2="60" stroke="url(#themeShim)" stroke-width="1"/>
</svg>
