<svg xmlns="http://www.w3.org/2000/svg" width="360" height="64" viewBox="0 0 360 64">
  <defs>
    <linearGradient id="bg" x1="0" y1="0" x2="1" y2="1">
      <stop offset="0" stop-color="#F8FAFC"/>
      <stop offset="1" stop-color="#E0F2FE"/>
    </linearGradient>
    <linearGradient id="titleGrad" x1="0" y1="0" x2="1" y2="0">
      <stop offset="0" stop-color="#0F172A"/>
      <stop offset="1" stop-color="#0369A1"/>
    </linearGradient>
    <linearGradient id="themeShim" x1="0" y1="0" x2="1" y2="0">
      <stop offset="0" stop-color="#0891B2" stop-opacity="0"/>
      <stop offset="0.5" stop-color="#06B6D4" stop-opacity="0.75"/>
      <stop offset="1" stop-color="#0891B2" stop-opacity="0"/>
    </linearGradient>
    <pattern id="grid" patternUnits="userSpaceOnUse" width="10" height="10" patternTransform="rotate(45)">
      <line x1="0" y1="0" x2="0" y2="10" stroke="#0891B2" stroke-width="1.4" opacity="0.05"/>
    </pattern>
  </defs>
  <rect x="0.5" y="0.5" width="359" height="63" fill="url(#bg)" stroke="#CBD5E1"/>
  <rect x="0.5" y="0.5" width="359" height="63" fill="url(#grid)"/>
  <path d="M 3 13 L 3 3 L 13 3" stroke="#0891B2" stroke-width="1.5" fill="none" stroke-linecap="square"/>
  <path d="M 347 3 L 357 3 L 357 13" stroke="#0891B2" stroke-width="1.5" fill="none" stroke-linecap="square"/>
  <path d="M 3 51 L 3 61 L 13 61" stroke="#0891B2" stroke-width="1.5" fill="none" stroke-linecap="square"/>
  <path d="M 347 61 L 357 61 L 357 51" stroke="#0891B2" stroke-width="1.5" fill="none" stroke-linecap="square"/>
  <g transform="translate(31.0 32.0)">
    <path d="M -13.5,5.25 C -15.75,0 -13.5,-9.0 -6.0,-12.75 C 0,-15,6.0,-12.75 13.5,-9.0 C 15.75,0 13.5,5.25 7.5,8.25 C 0,9.75 -7.5,8.25 -13.5,5.25 Z" fill="#0891B2" opacity="0.45" stroke="#06B6D4" stroke-width="1.2" stroke-linejoin="round"/>
    <ellipse cx="-5.25" cy="-8.25" rx="3.9000000000000004" ry="1.3499999999999999" fill="#0369A1" opacity="0.85"/>
    <circle cx="-4.5" cy="-0.75" r="2.1" fill="#0F172A" opacity="0.92"/>
    <circle cx="4.5" cy="-0.75" r="2.1" fill="#0F172A" opacity="0.92"/>
  </g>

  <line x1="58" y1="14" x2="58" y2="50" stroke="#CBD5E1" stroke-width="1" opacity="0.7"/>
  <text x="68" y="29" font-family="Georgia, 'Crimson Text', 'Times New Roman', serif" font-size="15" font-weight="700" font-style="italic" letter-spacing="2.4" fill="url(#titleGrad)">ARCHITECTURE</text>
  <text x="68" y="47" font-family="'SF Mono', Menlo, Consolas, 'Courier New', monospace" font-size="9" letter-spacing="1.3" fill="#475569">WORKER - FUNCTION - TRIGGER</text>
  <line x1="271.44" y1="14" x2="271.44" y2="50" stroke="#CBD5E1" stroke-width="1" opacity="0.7"/>
  <text x="277.44" y="26" font-family="'SF Mono', Menlo, Consolas, 'Courier New', monospace" font-size="8" letter-spacing="1.2" fill="#475569">NOTICE 009</text>
  <text x="277.44" y="44" font-family="Georgia, 'Crimson Text', 'Times New Roman', serif" font-size="13" font-weight="700" font-style="italic" letter-spacing="1.4" fill="#06B6D4">RANK S</text>
  <line x1="14" y1="60" x2="346" y2="60" stroke="url(#themeShim)" stroke-width="1"/>
</svg>
