<svg xmlns="http://www.w3.org/2000/svg" width="388" height="64" viewBox="0 0 388 64">
  <defs>
    <linearGradient id="bg" x1="0" y1="0" x2="1" y2="1">
      <stop offset="0" stop-color="#F8FAFC"/>
      <stop offset="1" stop-color="#E0F2FE"/>
    </linearGradient>
    <linearGradient id="titleGrad" x1="0" y1="0" x2="1" y2="0">
      <stop offset="0" stop-color="#0F172A"/>
      <stop offset="1" stop-color="#0369A1"/>
    </linearGradient>
    <linearGradient id="themeShim" x1="0" y1="0" x2="1" y2="0">
      <stop offset="0" stop-color="#A16207" stop-opacity="0"/>
      <stop offset="0.5" stop-color="#CA8A04" stop-opacity="0.75"/>
      <stop offset="1" stop-color="#A16207" stop-opacity="0"/>
    </linearGradient>
    <pattern id="grid" patternUnits="userSpaceOnUse" width="10" height="10" patternTransform="rotate(45)">
      <line x1="0" y1="0" x2="0" y2="10" stroke="#A16207" stroke-width="1.4" opacity="0.05"/>
    </pattern>
  </defs>
  <rect x="0.5" y="0.5" width="387" height="63" fill="url(#bg)" stroke="#CBD5E1"/>
  <rect x="0.5" y="0.5" width="387" height="63" fill="url(#grid)"/>
  <path d="M 3 13 L 3 3 L 13 3" stroke="#A16207" stroke-width="1.5" fill="none" stroke-linecap="square"/>
  <path d="M 375 3 L 385 3 L 385 13" stroke="#A16207" stroke-width="1.5" fill="none" stroke-linecap="square"/>
  <path d="M 3 51 L 3 61 L 13 61" stroke="#A16207" stroke-width="1.5" fill="none" stroke-linecap="square"/>
  <path d="M 375 61 L 385 61 L 385 51" stroke="#A16207" stroke-width="1.5" fill="none" stroke-linecap="square"/>
  <g transform="translate(31.0 32.0)">
    <circle cx="0" cy="0" r="14.25" fill="none" stroke="#A16207" stroke-width="1" stroke-dasharray="2 2" opacity="0.5"/>
    <path d="M -5.25,-15 L 3.75,-3.0 L -0.75,-0.75 L 5.25,15 L -3.75,3.0 L 0.75,0.75 Z" fill="#A16207" opacity="0.55" stroke="#CA8A04" stroke-width="1.2" stroke-linejoin="round"/>
    <circle cx="0" cy="0" r="1.5" fill="#0369A1"/>
  </g>

  <line x1="58" y1="14" x2="58" y2="50" stroke="#CBD5E1" stroke-width="1" opacity="0.7"/>
  <text x="68" y="29" font-family="Georgia, 'Crimson Text', 'Times New Roman', serif" font-size="15" font-weight="700" font-style="italic" letter-spacing="2.4" fill="url(#titleGrad)">HARDWARE ADVISOR</text>
  <text x="68" y="47" font-family="'SF Mono', Menlo, Consolas, 'Courier New', monospace" font-size="9" letter-spacing="1.3" fill="#475569">RUN MODELS LOCALLY - SEE SAVINGS</text>
  <line x1="299.44" y1="14" x2="299.44" y2="50" stroke="#CBD5E1" stroke-width="1" opacity="0.7"/>
  <text x="305.44" y="26" font-family="'SF Mono', Menlo, Consolas, 'Courier New', monospace" font-size="8" letter-spacing="1.2" fill="#475569">VELDORA</text>
  <text x="305.44" y="44" font-family="Georgia, 'Crimson Text', 'Times New Roman', serif" font-size="13" font-weight="700" font-style="italic" letter-spacing="1.4" fill="#CA8A04">RANK B</text>
  <line x1="14" y1="60" x2="374" y2="60" stroke="url(#themeShim)" stroke-width="1"/>
</svg>
