<svg xmlns="http://www.w3.org/2000/svg" width="184" height="80" viewBox="0 0 184 80">
  <defs>
    <linearGradient id="bg" x1="0" y1="0" x2="1" y2="1">
      <stop offset="0" stop-color="#F8FAFC"/>
      <stop offset="1" stop-color="#E0F2FE"/>
    </linearGradient>
    <linearGradient id="titleGrad" x1="0" y1="0" x2="1" y2="0">
      <stop offset="0" stop-color="#0F172A"/>
      <stop offset="1" stop-color="#0369A1"/>
    </linearGradient>
    <linearGradient id="shim" x1="0" y1="0" x2="1" y2="0">
      <stop offset="0" stop-color="#0891B2" stop-opacity="0"/>
      <stop offset="0.5" stop-color="#06B6D4" stop-opacity="0.75"/>
      <stop offset="1" stop-color="#0891B2" stop-opacity="0"/>
    </linearGradient>
    <pattern id="grid" patternUnits="userSpaceOnUse" width="10" height="10" patternTransform="rotate(45)">
      <line x1="0" y1="0" x2="0" y2="10" stroke="#0891B2" stroke-width="1.4" opacity="0.05"/>
    </pattern>
  </defs>
  <rect x="0.5" y="0.5" width="183" height="79" fill="url(#bg)" stroke="#CBD5E1"/>
  <rect x="0.5" y="0.5" width="183" height="79" fill="url(#grid)"/>
  <path d="M 3 13 L 3 3 L 13 3" stroke="#0891B2" stroke-width="1.5" fill="none" stroke-linecap="square"/>
  <path d="M 171 3 L 181 3 L 181 13" stroke="#0891B2" stroke-width="1.5" fill="none" stroke-linecap="square"/>
  <path d="M 3 67 L 3 77 L 13 77" stroke="#0891B2" stroke-width="1.5" fill="none" stroke-linecap="square"/>
  <path d="M 171 77 L 181 77 L 181 67" stroke="#0891B2" stroke-width="1.5" fill="none" stroke-linecap="square"/>
  <g transform="translate(162 20)">
    <polygon points="-8,-3.2 -3.2,-8 3.2,-8 8,-3.2 8,3.2 3.2,8 -3.2,8 -8,3.2" fill="none" stroke="#0891B2" stroke-width="1" stroke-dasharray="2 2" opacity="0.65"/>
    <polygon points="0,-4.4 4.4,0 0,4.4 -4.4,0" fill="#0891B2" opacity="0.35"/>
    <polygon points="0,-3.2 3.2,0 0,3.2 -3.2,0" fill="#06B6D4"/>
    <circle cx="0" cy="0" r="1.6" fill="#0369A1"/>
  </g>
  <text x="16" y="24" font-family="'SF Mono', Menlo, Consolas, 'Courier New', monospace" font-size="8" letter-spacing="1.6" fill="#475569">SKILL LVL</text>
  <text x="16" y="54" font-family="Georgia, 'Crimson Text', 'Times New Roman', serif" font-style="italic" font-size="28" font-weight="700" fill="#7C3AED">4</text>
  <line x1="16" y1="60" x2="41" y2="60" stroke="#7C3AED" stroke-width="1.5"/>
  <text x="16" y="73" font-family="'SF Mono', Menlo, Consolas, 'Courier New', monospace" font-size="9" letter-spacing="1.2" fill="#475569">INTERFACES</text>
</svg>
