<svg xmlns="http://www.w3.org/2000/svg" width="354" height="64" viewBox="0 0 354 64">
  <defs>
    <linearGradient id="bg" x1="0" y1="0" x2="1" y2="1">
      <stop offset="0" stop-color="#0A0E1A"/>
      <stop offset="1" stop-color="#141B2E"/>
    </linearGradient>
    <linearGradient id="titleGrad" x1="0" y1="0" x2="1" y2="0">
      <stop offset="0" stop-color="#F8FAFC"/>
      <stop offset="1" stop-color="#A5F3FC"/>
    </linearGradient>
    <linearGradient id="shim" x1="0" y1="0" x2="1" y2="0">
      <stop offset="0" stop-color="#06B6D4" stop-opacity="0"/>
      <stop offset="0.5" stop-color="#22D3EE" stop-opacity="0.9"/>
      <stop offset="1" stop-color="#06B6D4" stop-opacity="0"/>
    </linearGradient>
    <pattern id="grid" patternUnits="userSpaceOnUse" width="10" height="10" patternTransform="rotate(45)">
      <line x1="0" y1="0" x2="0" y2="10" stroke="#06B6D4" stroke-width="1.4" opacity="0.06"/>
    </pattern>
  </defs>
  <rect x="0.5" y="0.5" width="353" height="63" fill="url(#bg)" stroke="#1E293B"/>
  <rect x="0.5" y="0.5" width="353" height="63" fill="url(#grid)"/>
  <path d="M 3 13 L 3 3 L 13 3" stroke="#06B6D4" stroke-width="1.5" fill="none" stroke-linecap="square"/>
  <path d="M 341 3 L 351 3 L 351 13" stroke="#06B6D4" stroke-width="1.5" fill="none" stroke-linecap="square"/>
  <path d="M 3 51 L 3 61 L 13 61" stroke="#06B6D4" stroke-width="1.5" fill="none" stroke-linecap="square"/>
  <path d="M 341 61 L 351 61 L 351 51" stroke="#06B6D4" stroke-width="1.5" fill="none" stroke-linecap="square"/>
  <g transform="translate(31.0 32.0)">
    <polygon points="-15,-6.0 -6.0,-15 6.0,-15 15,-6.0 15,6.0 6.0,15 -6.0,15 -15,6.0" fill="none" stroke="#06B6D4" stroke-width="1" stroke-dasharray="2 2" opacity="0.65"/>
    <polygon points="0,-8.25 8.25,0 0,8.25 -8.25,0" fill="#06B6D4" opacity="0.35"/>
    <polygon points="0,-6.0 6.0,0 0,6.0 -6.0,0" fill="#22D3EE"/>
    <circle cx="0" cy="0" r="1.6" fill="#A5F3FC"/>
  </g>
  <line x1="58" y1="14" x2="58" y2="50" stroke="#1E293B" stroke-width="1" opacity="0.7"/>
  <text x="68" y="29" font-family="Georgia, 'Crimson Text', 'Times New Roman', serif" font-size="15" font-weight="700" font-style="italic" letter-spacing="2.4" fill="url(#titleGrad)">LICENSE</text>
  <text x="68" y="47" font-family="'SF Mono', Menlo, Consolas, 'Courier New', monospace" font-size="9" letter-spacing="1.3" fill="#94A3B8">APACHE 2.0 - MADE IN PUBLIC</text>
  <line x1="265.44" y1="14" x2="265.44" y2="50" stroke="#1E293B" stroke-width="1" opacity="0.7"/>
  <text x="271.44" y="26" font-family="'SF Mono', Menlo, Consolas, 'Courier New', monospace" font-size="8" letter-spacing="1.2" fill="#94A3B8">NOTICE 012</text>
  <text x="271.44" y="44" font-family="Georgia, 'Crimson Text', 'Times New Roman', serif" font-size="13" font-weight="700" font-style="italic" letter-spacing="1.4" fill="#22D3EE">RANK -</text>
  <line x1="14" y1="60" x2="340" y2="60" stroke="url(#shim)" stroke-width="1"/>
</svg>
