<svg xmlns="http://www.w3.org/2000/svg" width="406" height="64" viewBox="0 0 406 64">
  <defs>
    <linearGradient id="bg" x1="0" y1="0" x2="1" y2="1">
      <stop offset="0" stop-color="#0A0E1A"/>
      <stop offset="1" stop-color="#141B2E"/>
    </linearGradient>
    <linearGradient id="titleGrad" x1="0" y1="0" x2="1" y2="0">
      <stop offset="0" stop-color="#F8FAFC"/>
      <stop offset="1" stop-color="#A5F3FC"/>
    </linearGradient>
    <linearGradient id="themeShim" x1="0" y1="0" x2="1" y2="0">
      <stop offset="0" stop-color="#EC4899" stop-opacity="0"/>
      <stop offset="0.5" stop-color="#F472B6" stop-opacity="0.9"/>
      <stop offset="1" stop-color="#EC4899" stop-opacity="0"/>
    </linearGradient>
    <pattern id="grid" patternUnits="userSpaceOnUse" width="10" height="10" patternTransform="rotate(45)">
      <line x1="0" y1="0" x2="0" y2="10" stroke="#EC4899" stroke-width="1.4" opacity="0.06"/>
    </pattern>
  </defs>
  <rect x="0.5" y="0.5" width="405" height="63" fill="url(#bg)" stroke="#1E293B"/>
  <rect x="0.5" y="0.5" width="405" height="63" fill="url(#grid)"/>
  <path d="M 3 13 L 3 3 L 13 3" stroke="#EC4899" stroke-width="1.5" fill="none" stroke-linecap="square"/>
  <path d="M 393 3 L 403 3 L 403 13" stroke="#EC4899" stroke-width="1.5" fill="none" stroke-linecap="square"/>
  <path d="M 3 51 L 3 61 L 13 61" stroke="#EC4899" stroke-width="1.5" fill="none" stroke-linecap="square"/>
  <path d="M 393 61 L 403 61 L 403 51" stroke="#EC4899" stroke-width="1.5" fill="none" stroke-linecap="square"/>
  <g transform="translate(31.0 32.0)">
    <ellipse cx="0" cy="-8.25" rx="4.5" ry="7.199999999999999" fill="#EC4899" opacity="0.55" stroke="#F472B6" stroke-width="0.9" transform="rotate(0)"/>
    <ellipse cx="0" cy="-8.25" rx="4.5" ry="7.199999999999999" fill="#EC4899" opacity="0.55" stroke="#F472B6" stroke-width="0.9" transform="rotate(72)"/>
    <ellipse cx="0" cy="-8.25" rx="4.5" ry="7.199999999999999" fill="#EC4899" opacity="0.55" stroke="#F472B6" stroke-width="0.9" transform="rotate(144)"/>
    <ellipse cx="0" cy="-8.25" rx="4.5" ry="7.199999999999999" fill="#EC4899" opacity="0.55" stroke="#F472B6" stroke-width="0.9" transform="rotate(216)"/>
    <ellipse cx="0" cy="-8.25" rx="4.5" ry="7.199999999999999" fill="#EC4899" opacity="0.55" stroke="#F472B6" stroke-width="0.9" transform="rotate(288)"/>
    <circle cx="0" cy="0" r="3.0" fill="#F472B6"/>
    <circle cx="0" cy="0" r="1.3499999999999999" fill="#A5F3FC"/>
  </g>

  <line x1="58" y1="14" x2="58" y2="50" stroke="#1E293B" stroke-width="1" opacity="0.7"/>
  <text x="68" y="29" font-family="Georgia, 'Crimson Text', 'Times New Roman', serif" font-size="15" font-weight="700" font-style="italic" letter-spacing="2.4" fill="url(#titleGrad)">OUTPUT COMPRESSION</text>
  <text x="68" y="47" font-family="'SF Mono', Menlo, Consolas, 'Courier New', monospace" font-size="9" letter-spacing="1.3" fill="#94A3B8">SIX STRATEGIES - AUTO ROUTING</text>
  <line x1="317.44" y1="14" x2="317.44" y2="50" stroke="#1E293B" stroke-width="1" opacity="0.7"/>
  <text x="323.44" y="26" font-family="'SF Mono', Menlo, Consolas, 'Courier New', monospace" font-size="8" letter-spacing="1.2" fill="#94A3B8">SHUNA</text>
  <text x="323.44" y="44" font-family="Georgia, 'Crimson Text', 'Times New Roman', serif" font-size="13" font-weight="700" font-style="italic" letter-spacing="1.4" fill="#F472B6">RANK A</text>
  <line x1="14" y1="60" x2="392" y2="60" stroke="url(#themeShim)" stroke-width="1"/>
</svg>
