<svg xmlns="http://www.w3.org/2000/svg" width="720" height="240" viewBox="0 0 720 240">
  <defs>
    <radialGradient id="sky" cx="0.5" cy="0.4" r="0.8">
      <stop offset="0" stop-color="#141B2E"/>
      <stop offset="1" stop-color="#0A0E1A"/>
    </radialGradient>
    <linearGradient id="rim" x1="0" y1="0" x2="1" y2="1">
      <stop offset="0" stop-color="#22D3EE"/>
      <stop offset="0.5" stop-color="#A5F3FC"/>
      <stop offset="1" stop-color="#A78BFA"/>
    </linearGradient>
    <linearGradient id="shimTop" x1="0" y1="0" x2="1" y2="0">
      <stop offset="0" stop-color="#06B6D4" stop-opacity="0"/>
      <stop offset="0.5" stop-color="#22D3EE" stop-opacity="0.9"/>
      <stop offset="1" stop-color="#06B6D4" stop-opacity="0"/>
    </linearGradient>
    <pattern id="stars" patternUnits="userSpaceOnUse" width="60" height="60">
      <circle cx="8" cy="12" r="0.8" fill="#A5F3FC" opacity="0.4"/>
      <circle cx="34" cy="28" r="0.5" fill="#22D3EE" opacity="0.5"/>
      <circle cx="52" cy="8" r="0.6" fill="#A5F3FC" opacity="0.3"/>
      <circle cx="22" cy="48" r="0.7" fill="#22D3EE" opacity="0.4"/>
      <circle cx="46" cy="44" r="0.5" fill="#A5F3FC" opacity="0.5"/>
    </pattern>
    <pattern id="grid" patternUnits="userSpaceOnUse" width="12" height="12" patternTransform="rotate(45)">
      <line x1="0" y1="0" x2="0" y2="12" stroke="#06B6D4" stroke-width="1.2" opacity="0.04"/>
    </pattern>
  </defs>
  <rect x="0" y="0" width="720" height="240" fill="url(#sky)"/>
  <rect x="0" y="0" width="720" height="240" fill="url(#stars)"/>
  <rect x="0" y="0" width="720" height="240" fill="url(#grid)"/>
  <rect x="0.5" y="0.5" width="719" height="239" fill="none" stroke="#1E293B"/>
  <path d="M 3 25 L 3 3 L 25 3" stroke="#06B6D4" stroke-width="1.5" fill="none" stroke-linecap="square"/>
  <path d="M 695 3 L 717 3 L 717 25" stroke="#06B6D4" stroke-width="1.5" fill="none" stroke-linecap="square"/>
  <path d="M 3 215 L 3 237 L 25 237" stroke="#06B6D4" stroke-width="1.5" fill="none" stroke-linecap="square"/>
  <path d="M 695 237 L 717 237 L 717 215" stroke="#06B6D4" stroke-width="1.5" fill="none" stroke-linecap="square"/>
  <g transform="translate(360.0 64)">
    <polygon points="-26,-10.4 -10.4,-26 10.4,-26 26,-10.4 26,10.4 10.4,26 -10.4,26 -26,10.4" fill="none" stroke="#06B6D4" stroke-width="1" stroke-dasharray="2 2" opacity="0.65"/>
    <polygon points="0,-14.3 14.3,0 0,14.3 -14.3,0" fill="#06B6D4" opacity="0.35"/>
    <polygon points="0,-10.4 10.4,0 0,10.4 -10.4,0" fill="#22D3EE"/>
    <circle cx="0" cy="0" r="1.6" fill="#A5F3FC"/>
  </g>
  <text x="360.0" y="152" text-anchor="middle" font-family="Georgia, 'Crimson Text', 'Times New Roman', serif" font-size="84" font-weight="700" font-style="italic" letter-spacing="10" fill="url(#rim)">RIMURU</text>
  <text x="360.0" y="182" text-anchor="middle" font-family="'SF Mono', Menlo, Consolas, 'Courier New', monospace" font-size="11" letter-spacing="6" fill="#94A3B8">TEMPEST SYSTEM</text>
  <line x1="270.0" y1="196" x2="450.0" y2="196" stroke="url(#shimTop)" stroke-width="1"/>
  <text x="360.0" y="216" text-anchor="middle" font-family="'SF Mono', Menlo, Consolas, 'Courier New', monospace" font-size="10" letter-spacing="2.8" fill="#22D3EE">UNIQUE SKILL -- COST CONTROL FOR AI CODING AGENTS</text>
  <text x="30" y="30" font-family="'SF Mono', Menlo, Consolas, 'Courier New', monospace" font-size="9" letter-spacing="1.4" fill="#94A3B8">TEMPEST // 001</text>
  <text x="690" y="30" text-anchor="end" font-family="'SF Mono', Menlo, Consolas, 'Courier New', monospace" font-size="9" letter-spacing="1.4" fill="#22D3EE">v0.4.0 // BENIMARU</text>
</svg>
